<?xml version="1.0" encoding="iso-8859-1"?>
<!-- Generator: Adobe Illustrator 16.0.0, SVG Export Plug-In . SVG Version: 6.00 Build 0)  -->
<!DOCTYPE svg PUBLIC "-//W3C//DTD SVG 1.1//EN" "http://www.w3.org/Graphics/SVG/1.1/DTD/svg11.dtd">
<svg version="1.1" id="Capa_1" xmlns="http://www.w3.org/2000/svg" xmlns:xlink="http://www.w3.org/1999/xlink" x="0px" y="0px"
	 width="95.508px" height="95.508px" viewBox="0 0 95.508 95.508" style="enable-background:new 0 0 95.508 95.508;"
	 xml:space="preserve">
<g>
	<g>
		<path d="M86.849,59.454c-1.58-2.285-3.255-4.479-4.064-7.245c-0.73-2.5-2.724-4.181-4.771-5.655
			c-1.458-1.05-3.1-0.892-4.428,0.336c-0.824,0.762-1.587,1.643-2.178,2.594c-0.627,1.011-1.468,1.509-2.508,1.782
			c-0.534,0.14-1.084-0.246-1.282-0.762c-0.704-1.833-1.99-3.218-3.437-4.497c-0.301-0.266-0.552-0.654-0.685-1.034
			c-1.339-3.834-4.1-6.212-7.693-7.889c-2.218-1.034-4.355-2.278-6.402-3.619c-1.423-0.932-2.3-2.246-2.396-3.836
			c-0.033-0.551,0.408-1.266,0.932-1.441c1.512-0.505,2.786,0.315,4.031,1.083c1.426,0.879,2.992,1.576,3.659,3.371
			c0.917,2.467,3.902,3.504,6.375,3.508c2.455,0.004,3.271-1.623,4.575-2.905c0.693-0.68,0.839-1.453,0.31-2.31
			c-0.25-0.402-0.442-0.848-0.739-1.21c-2.268-2.762-3.79-5.959-5.364-9.126c-0.125-0.253-0.39-0.541-0.343-0.759
			c0.583-2.671-1.323-3.932-2.969-5.348c-0.034-0.03-0.062-0.068-0.085-0.109c-0.039-0.066,0.262-0.432,0.75-0.69
			c1.122-0.592,2.036-0.227,2.892,1.134c0.294,0.468,0.559,0.503,0.652,0.037c0.058-0.291,0.096-0.579,0.053-0.854
			c-0.14-0.899-0.738-1.369-2.333-1.824c-0.531-0.151-0.729-0.626-0.434-1.092c0.851-1.34,1.688-2.663,2.525-3.982
			c0.296-0.466,0.438-0.92,0.318-1.014c-0.12-0.094-0.592,0.073-1.057,0.373C60.494,6.641,60.226,6.815,59.939,7
			c-0.463,0.3-0.812,0.097-0.828-0.455c-0.041-1.438-0.374-2.626-1.426-3.331c-0.459-0.307-0.771,0.002-0.611,0.531
			c0.169,0.558,0.341,1.123,0.514,1.691c0.161,0.528,0.184,1.006,0.051,1.066c-0.134,0.06-0.393-0.314-0.643-0.807
			c-0.957-1.888-2.453-3.032-4.642-3.327c-0.547-0.074-0.654,0.214-0.231,0.569c0.115,0.097,0.23,0.194,0.346,0.29
			c0.423,0.355,0.483,0.991,0.136,1.419c-0.204,0.251-0.407,0.502-0.62,0.763c-0.348,0.429-0.712,0.334-0.901-0.185
			c-0.598-1.641-1.747-2.648-3.217-3.293c-0.506-0.222-0.689,0.021-0.383,0.48c0.198,0.299,0.398,0.599,0.599,0.901
			c0.306,0.46,0.472,0.901,0.368,0.985c-0.103,0.084-0.56-0.094-1.02-0.4c-0.487-0.324-0.976-0.646-1.471-0.959
			c-1.98-1.244-4.064-1.516-6.219-0.521c-0.999,0.46-1.904,0.527-2.968,0.105c-1.734-0.688-3.339-0.406-4.843,0.641
			c-0.454,0.315-1.032,0.244-1.424-0.145c-1.008-1.002-2.278-1.425-3.751-1.361c-0.46,0.02-0.948,0.079-1.368,0.252
			C22.799,2.97,21.722,2.7,19.984,0.485c-0.103-0.131-0.205-0.262-0.317-0.406c-0.175-0.224-0.313,0.044-0.237,0.591
			c0.428,3.087,2.522,4.219,6.103,3.699c1.993-0.29,2.996,0.109,3.272,1.452c0.111,0.541,0.026,1.016-0.039,1.043
			c-0.048,0.02-0.093,0.034-0.121,0.018c-3.165-1.835-4.152-1.699-7.099,0.647c-0.377,0.301-0.879,0.445-1.394,0.574
			c-0.536,0.133-0.949-0.188-0.928-0.74c0.018-0.464,0.037-0.928,0.061-1.391c0.004-0.088,0.035-0.175,0.093-0.355
			c0.062-0.193-0.233-0.061-0.661,0.29c-0.327,0.268-0.604,0.504-0.837,0.778c-1.198,1.407-0.919,2.81,0.77,3.542
			c0.751,0.325,1.555,0.53,2.407,0.757c0.534,0.142,0.526,0.361-0.015,0.471c-0.594,0.121-1.166,0.239-1.729,0.389
			c-3.29,0.873-4.637,2.505-4.913,5.901c-0.15,1.84-0.752,2.322-2.619,2.414c-0.912,0.045-1.892,0.213-2.693,0.619
			c-1.02,0.516-1.627,1.52-1.385,2.72C7.87,24.325,8.39,24.733,9.04,24.94c0.526,0.168,0.796-0.149,0.568-0.559
			s-0.028-0.936,0.45-1.167c0.3-0.146,0.603-0.265,0.911-0.286c0.637-0.042,1.28,0.026,1.925,0.101
			c0.549,0.064,0.913,0.548,0.819,1.092c-0.115,0.668-0.234,1.334-0.421,1.981c-0.152,0.525-0.517,1.012-0.868,1.45
			c-1.467,1.828-3.383,1.879-4.963,0.147c-0.175-0.192-0.335-0.396-0.493-0.607c-0.26-0.345-0.532-0.18-0.521,0.372
			c0.034,1.785,0.814,3.046,2.349,3.817c0.493,0.248,0.687,0.757,0.365,1.205c-0.601,0.837-1.242,1.668-1.397,2.582
			c-0.155,0.908,0.202,1.902,0.518,2.939c0.161,0.528-0.042,1.325-0.561,1.517c-0.786,0.292-1.484-0.143-1.749-1.356
			c-0.164-0.749-0.183-1.53-0.204-2.311c-0.015-0.552-0.343-0.663-0.601-0.174c-0.842,1.603-0.861,3.838,0.068,5.193
			c0.89,1.298,2.265,1.419,3.677,0.303c0.952-0.753,1.917-1.436,3.239-1.318c0.55,0.049,0.712,0.375,0.393,0.571
			c-0.212,0.13-0.397,0.241-0.588,0.338c-1.271,0.648-2.081,1.551-2.07,3.1c0.009,1.19-0.528,2.064-1.82,2.359
			c-1.511,0.344-2.466,1.574-2.352,2.9c0.087,1.011,0.757,1.713,2.031,2.059c0.533,0.145,0.77-0.056,0.507-0.35
			c-0.168-0.188-0.32-0.362-0.463-0.544c-0.873-1.11-0.554-2.062,0.86-2.152c0.839-0.054,1.768,0.22,2.552,0.576
			c1.741,0.789,2.092,0.701,2.647-1.051c0.506-1.6,1.617-2.163,3.053-1.337c1.15,0.662,2.213,0.852,3.197,0.42
			c0.506-0.222,0.791-0.092,0.737,0.457c-0.139,1.409-0.268,2.832-0.463,4.245c-0.269,1.941-1.216,2.724-2.847,2.397
			c-0.542-0.108-0.866,0.168-0.555,0.625c0.39,0.573,0.979,0.746,2.124,0.656c0.55-0.043,0.846,0.303,0.657,0.821
			c-0.192,0.529-0.376,1.045-0.51,1.574c-0.534,2.106,0.051,3.154,1.766,3.241c0.551,0.028,0.722-0.394,0.38-0.827
			c-0.25-0.318-0.472-0.646-0.549-1.006c-0.156-0.728-0.021-1.612,0.26-2.319c0.763-1.916,2.296-2.539,4.262-1.784
			c1.688,0.648,3.302,0.929,4.864,0.013c0.477-0.279,0.69-0.358,0.545-0.074c-0.088,0.172-0.182,0.341-0.292,0.497
			c-2.266,3.204-4.379,6.538-7.579,8.953c-1.792,1.353-3.705,2.367-5.945,2.871c-0.702,0.157-1.391,0.335-2.066,0.533
			c-0.53,0.156-0.699,0.665-0.378,1.114c5.857,8.185,13.45,14.992,22.225,19.867c0.483,0.268,1.307,0.349,1.835,0.189
			c3.648-1.109,7.292-2.255,10.84-3.632c3.391-1.315,6.24-3.566,8.516-6.446c2.111-2.671,4.206-5.357,6.22-8.102
			c0.506-0.688,0.995-0.919,1.764-0.776c1.6,0.296,3.046,0.047,4.467-0.857c1.369-0.87,3.119-0.267,4.123,1.368
			c0.612,0.996,1.01,2.131,1.449,3.226c0.722,1.801,1.428,3.607,2.088,5.431c0.533,1.471,0.128,2.174-1.417,2.353
			c-0.782,0.091-1.594-0.073-2.392-0.131c-1.06-0.077-1.475,0.229-1.16,1.41c0.153,0.573-0.026,1.426-0.393,1.88
			c-0.249,0.308-1.119,0.295-1.649,0.167c-2.708-0.653-2.882-0.755-3.915,1.824c-0.92,2.299-1.42,4.771-2.014,7.19
			c-0.083,0.337-0.052,0.702,0.004,1.104c0.073,0.547,0.542,0.835,1.062,0.648c2.592-0.928,5.05-1.731,6.588-4.191
			c0.3-0.479,1.156-0.715,1.799-0.847c0.416-0.084,0.851-0.079,1.312-0.062c0.552,0.021,0.974,0.312,0.943,0.66
			s0.039,0.602,0.159,0.576c0.092-0.021,0.165-0.041,0.197-0.091c1.891-2.89,5.414-4.531,6.273-8.226
			c0.094-0.406,0.712-0.679,0.842-1.091c0.464-1.471,0.867-2.961,1.106-4.457c0.087-0.545,0.479-1.276,0.903-1.629
			c0.053-0.044,0.105-0.088,0.159-0.132c0.425-0.354,0.902-0.273,1.067,0.177c0.164,0.45,0.455,0.396,0.654-0.119
			c0.951-2.455,1.914-4.718,2.592-7.063c0.558-1.926-0.026-3.862-1.134-5.553C88.742,62.057,87.763,60.777,86.849,59.454z
			 M82.799,67.71c-0.08,0.049-0.156,0.105-0.235,0.156c-1.061,0.689-1.456,1.429-0.695,2.706c0.261,0.438,0.312,1.002,0.344,1.576
			c0.032,0.551-0.066,1.017-0.248,1.042c-0.18,0.026-0.396-0.396-0.511-0.936c-0.243-1.139-0.541-2.282-0.411-3.375
			c0.38-3.212-0.627-5.973-2.201-8.606c-1.005-1.682-2.559-2.236-4.396-1.529c-1.172,0.451-2.249,1.178-3.317,1.859
			c-0.607,0.388-1.212,0.556-1.838,0.516c-0.551-0.034-0.57-0.419-0.046-0.589c0.406-0.131,0.812-0.247,1.187-0.426
			c0.875-0.418,1.84-0.84,2.476-1.529c1.949-2.109,3.891-2.239,5.873-0.15c1.561,1.645,3.07,3.338,4.599,5.012
			C85.646,65.921,85.638,65.987,82.799,67.71z"/>
	</g>
</g>
<g>
</g>
<g>
</g>
<g>
</g>
<g>
</g>
<g>
</g>
<g>
</g>
<g>
</g>
<g>
</g>
<g>
</g>
<g>
</g>
<g>
</g>
<g>
</g>
<g>
</g>
<g>
</g>
<g>
</g>
</svg>
